<svg
    width="24"
    height="24"
    viewBox="0 0 24 24"
    fill="none"
    xmlns="http://www.w3.org/2000/svg"
>
    <path
        d="M23.9743 4.61403C23.9742 4.61257 23.9754 4.61136 23.9768 4.61136C23.978 4.61136 23.979 4.61063 23.9793 4.60947C23.9991 4.52667 24.0184 4.28384 23.9676 4.18124C23.9665 4.17938 23.9654 4.17758 23.9644 4.17585C23.9544 4.1592 23.948 4.14063 23.9468 4.12126C23.9459 4.1066 23.9481 4.09192 23.9514 4.0776C23.9596 4.04104 23.9676 3.97323 23.9676 3.84329V3.72065C23.9676 3.70046 24.0009 3.67811 23.9997 3.65795C23.999 3.64161 23.9863 3.61809 23.9716 3.59363C23.969 3.58933 23.9676 3.58441 23.9676 3.57939V3.54931C23.9676 3.54118 23.9765 3.53619 23.9834 3.54042C23.9905 3.54471 23.9995 3.54056 23.9993 3.53233C23.9875 2.97256 23.9815 0.890821 23.9815 0.609193C23.9815 0.607136 23.9798 0.606036 23.9778 0.606036C23.9756 0.606036 23.9739 0.604194 23.974 0.602058C23.9939 0.214023 23.7763 -0.0213873 23.1967 0.00920413C21.9986 0.00269191 21.9705 0.00732871 20.7974 0.0119512C19.2033 0.0182325 19.17 0.0244872 17.9503 0.00270459C17.7038 0.00270458 17.5493 0.0468452 17.3944 0.0911013C17.2437 0.134175 16.766 0.0150902 16.6092 0.0150421C16.4971 0.0150077 16.3586 0.0160387 16.192 0.0170203C15.656 0.0201781 15.1065 0.152317 14.5705 0.157443C14.378 0.159283 14.1841 0.147875 14.0181 0.130416C13.7752 0.104886 13.5339 0.0621104 13.2905 0.042539C13.0692 0.0247391 12.8577 0.00987858 12.6665 0.00270421C10.9975 0.0186337 13.9772 0.0126115 12.0675 0.00651055C9.72741 -0.000965367 11.6746 -0.00855947 9.61276 0.0239731C8.25953 0.00992671 8.53779 0.00582677 7.19756 0.0051922C7.05628 0.00512529 6.96926 0.0553248 6.88223 0.105532C6.79528 0.155694 6.70832 0.205864 6.56721 0.205921C6.12635 0.206098 5.63149 0.156324 5.13658 0.106545C4.64162 0.0567623 5.22769 0.00697359 4.78658 0.00713587C3.68431 0.0075414 4.74237 0.00647914 3.63264 0.000339672C2.8644 0.0087386 2.95316 0.00628318 2.43998 0.00349408C2.26422 0.00253882 2.08126 0.00154442 1.87591 0.000933554C1.6571 0.000282632 1.31524 0.0365779 1.09692 0.0219261C0.644436 -0.00844045 -0.0405909 -0.0544131 0.0190555 0.369386C0.0207014 0.38108 0.0219673 0.39327 0.0220023 0.405079C0.022205 0.473448 0.0235677 0.539194 0.025737 0.603366C0.0257863 0.604827 0.0246158 0.606036 0.0231544 0.606036C0.0219656 0.606036 0.0209491 0.606765 0.0206728 0.607921C0.000884177 0.690728 -0.0183692 0.93355 0.0324034 1.03615C0.0335025 1.03801 0.0345704 1.03981 0.0356075 1.04154C0.0455915 1.05818 0.0519466 1.07677 0.0531638 1.09614C0.0540844 1.11079 0.0518793 1.12548 0.0486431 1.1398C0.0403819 1.17635 0.0324034 1.24417 0.0324034 1.3741V1.49674C0.0324034 1.51693 -0.000943943 1.53928 0.000296274 1.55944C0.00103431 1.57578 0.0137065 1.5993 0.0284234 1.62376C0.0310109 1.62806 0.0324034 1.63298 0.0324034 1.638V1.66808C0.0324034 1.67621 0.023505 1.6812 0.0165652 1.67697C0.00953463 1.67268 0.000517026 1.67683 0.000691068 1.68506C0.0125229 2.24483 0.0184607 4.32656 0.0185059 4.6082C0.0185062 4.61025 0.0201746 4.61135 0.0222327 4.61135C0.0243717 4.61135 0.0260685 4.6132 0.0259589 4.61533C0.0060563 5.00337 0.223697 5.23878 0.803328 5.20819C2.00142 5.2147 2.63763 5.21006 3.81073 5.20544C5.40482 5.19916 3.74895 5.1929 5.37402 5.21469C5.62053 5.21469 5.77501 5.17055 5.92989 5.12629C6.08063 5.08322 6.9091 5.18893 7.06579 5.19415C7.397 5.20518 7.82765 5.20264 8.21345 5.20037C8.2278 5.20029 8.24209 5.2002 8.2563 5.20012C8.76433 5.19715 9.22959 5.10092 9.73578 5.1442C10.0886 5.17437 10.4309 5.20364 10.7254 5.21469C12.3944 5.19876 9.95518 5.20478 11.8649 5.21088C14.205 5.21836 11.7173 5.22595 13.7791 5.19342C14.5243 5.20746 14.7865 5.21156 16.1268 5.2122C16.268 5.21227 16.3551 5.16207 16.4421 5.11186C16.529 5.0617 16.616 5.01153 16.7571 5.01147C17.198 5.01129 17.6928 5.06107 18.1878 5.11085C18.6827 5.16063 18.7723 5.21042 19.2134 5.21025C20.3157 5.20985 19.8657 5.21091 20.9755 5.21705C21.7437 5.20865 21.3847 5.21111 21.8979 5.2139C22.0071 5.21449 22.0681 5.2151 22.1241 5.21562C22.3429 5.21766 22.6848 5.18081 22.9031 5.19546C23.3556 5.22583 24.0406 5.2718 23.9809 4.848C23.9793 4.83631 23.978 4.82412 23.978 4.81231C23.9778 4.74394 23.9764 4.6782 23.9743 4.61403Z"
        fill="white"
    />
    <path
        d="M23.9743 14.0066C23.9742 14.0051 23.9754 14.0039 23.9768 14.0039C23.978 14.0039 23.979 14.0032 23.9793 14.002C23.9991 13.9192 24.0184 13.6764 23.9676 13.5738C23.9665 13.572 23.9654 13.5702 23.9644 13.5684C23.9544 13.5518 23.948 13.5332 23.9468 13.5138C23.9459 13.4992 23.9481 13.4845 23.9514 13.4702C23.9596 13.4336 23.9676 13.3658 23.9676 13.2359V13.1132C23.9676 13.093 24.0009 13.0707 23.9997 13.0505C23.999 13.0342 23.9863 13.0107 23.9716 12.9862C23.969 12.9819 23.9676 12.977 23.9676 12.972V12.9419C23.9676 12.9338 23.9765 12.9288 23.9834 12.933C23.9905 12.9373 23.9995 12.9331 23.9993 12.9249C23.9875 12.3651 23.9815 10.2834 23.9815 10.0018C23.9815 9.99971 23.9798 9.99861 23.9778 9.99861C23.9756 9.99861 23.9739 9.99677 23.974 9.99464C23.9939 9.6066 23.7763 9.37119 23.1967 9.40178C21.9986 9.39527 21.9705 9.39991 20.7974 9.40453C19.2033 9.41081 19.17 9.41707 17.9503 9.39528C17.7038 9.39528 17.5493 9.43942 17.3944 9.48368C17.2437 9.52675 16.766 9.40767 16.6092 9.40762C16.4971 9.40759 16.3586 9.40862 16.192 9.4096C15.656 9.41276 15.1065 9.54489 14.5705 9.55002C14.378 9.55186 14.1841 9.54045 14.0181 9.52299C13.7752 9.49746 13.5339 9.45469 13.2905 9.43512C13.0692 9.41732 12.8577 9.40246 12.6665 9.39528C10.9975 9.41121 13.9772 9.40519 12.0675 9.39909C9.72741 9.39161 11.6746 9.38402 9.61276 9.41655C8.25953 9.4025 8.53779 9.3984 7.19756 9.39777C7.05628 9.3977 6.96926 9.4479 6.88223 9.49811C6.79528 9.54827 6.70832 9.59844 6.56721 9.5985C6.12635 9.59868 5.63149 9.5489 5.13658 9.49912C4.64162 9.44934 5.22769 9.39955 4.78658 9.39971C3.68431 9.40012 4.74237 9.39906 3.63264 9.39292C2.8644 9.40132 2.95316 9.39886 2.43998 9.39607C2.26422 9.39512 2.08126 9.39412 1.87591 9.39351C1.6571 9.39286 1.31524 9.42916 1.09692 9.4145C0.644436 9.38414 -0.0405909 9.33817 0.0190555 9.76196C0.0207014 9.77366 0.0219673 9.78585 0.0220023 9.79766C0.022205 9.86603 0.0235677 9.93177 0.025737 9.99594C0.0257863 9.9974 0.0246158 9.99861 0.0231544 9.99861C0.0219656 9.99861 0.0209491 9.99934 0.0206728 10.0005C0.000884177 10.0833 -0.0183692 10.3261 0.0324034 10.4287C0.0335025 10.4306 0.0345704 10.4324 0.0356075 10.4341C0.0455915 10.4508 0.0519466 10.4693 0.0531638 10.4887C0.0540844 10.5034 0.0518793 10.5181 0.0486431 10.5324C0.0403819 10.5689 0.0324034 10.6367 0.0324034 10.7667V10.8893C0.0324034 10.9095 -0.000943943 10.9319 0.000296274 10.952C0.00103431 10.9684 0.0137065 10.9919 0.0284234 11.0163C0.0310109 11.0206 0.0324034 11.0256 0.0324034 11.0306V11.0607C0.0324034 11.0688 0.023505 11.0738 0.0165652 11.0695C0.00953463 11.0653 0.000517026 11.0694 0.000691068 11.0776C0.0125229 11.6374 0.0184607 13.7191 0.0185059 14.0008C0.0185062 14.0028 0.0201746 14.0039 0.0222327 14.0039C0.0243717 14.0039 0.0260685 14.0058 0.0259589 14.0079C0.0060563 14.3959 0.223697 14.6314 0.803328 14.6008C2.00142 14.6073 2.63763 14.6026 3.81073 14.598C5.40482 14.5917 3.74895 14.5855 5.37402 14.6073C5.62053 14.6073 5.77501 14.5631 5.92989 14.5189C6.08063 14.4758 6.9091 14.5815 7.06579 14.5867C7.397 14.5978 7.82765 14.5952 8.21345 14.5929C8.2278 14.5929 8.24209 14.5928 8.2563 14.5927C8.76433 14.5897 9.22959 14.4935 9.73578 14.5368C10.0886 14.5669 10.4309 14.5962 10.7254 14.6073C12.3944 14.5913 9.95518 14.5974 11.8649 14.6035C14.205 14.6109 11.7173 14.6185 13.7791 14.586C14.5243 14.6 14.7865 14.6041 16.1268 14.6048C16.268 14.6048 16.3551 14.5546 16.4421 14.5044C16.529 14.4543 16.616 14.4041 16.7571 14.404C17.198 14.4039 17.6928 14.4536 18.1878 14.5034C18.6827 14.5532 18.7723 14.603 19.2134 14.6028C20.3157 14.6024 19.8657 14.6035 20.9755 14.6096C21.7437 14.6012 21.3847 14.6037 21.8979 14.6065C22.0071 14.6071 22.0681 14.6077 22.1241 14.6082C22.3429 14.6102 22.6848 14.5734 22.9031 14.588C23.3556 14.6184 24.0406 14.6644 23.9809 14.2406C23.9793 14.2289 23.978 14.2167 23.978 14.2049C23.9778 14.1365 23.9764 14.0708 23.9743 14.0066Z"
        fill="white"
    />
    <path
        d="M23.9743 23.3972C23.9742 23.3958 23.9754 23.3946 23.9768 23.3946C23.978 23.3946 23.979 23.3938 23.9793 23.3927C23.9991 23.3099 24.0184 23.067 23.9676 22.9644C23.9665 22.9626 23.9654 22.9608 23.9644 22.9591C23.9544 22.9424 23.948 22.9238 23.9468 22.9045C23.9459 22.8898 23.9481 22.8751 23.9514 22.8608C23.9596 22.8242 23.9676 22.7564 23.9676 22.6265V22.5039C23.9676 22.4837 24.0009 22.4613 23.9997 22.4412C23.999 22.4248 23.9863 22.4013 23.9716 22.3768C23.969 22.3725 23.9676 22.3676 23.9676 22.3626V22.3325C23.9676 22.3244 23.9765 22.3194 23.9834 22.3236C23.9905 22.3279 23.9995 22.3238 23.9993 22.3155C23.9875 21.7558 23.9815 19.674 23.9815 19.3924C23.9815 19.3903 23.9798 19.3892 23.9778 19.3892C23.9756 19.3892 23.9739 19.3874 23.974 19.3853C23.9939 18.9972 23.7763 18.7618 23.1967 18.7924C21.9986 18.7859 21.9705 18.7905 20.7974 18.7952C19.2033 18.8014 19.17 18.8077 17.9503 18.7859C17.7038 18.7859 17.5493 18.83 17.3944 18.8743C17.2437 18.9174 16.766 18.7983 16.6092 18.7982C16.4971 18.7982 16.3586 18.7992 16.192 18.8002C15.656 18.8034 15.1065 18.9355 14.5705 18.9406C14.378 18.9425 14.1841 18.9311 14.0181 18.9136C13.7752 18.8881 13.5339 18.8453 13.2905 18.8257C13.0692 18.8079 12.8577 18.7931 12.6665 18.7859C10.9975 18.8018 13.9772 18.7958 12.0675 18.7897C9.72741 18.7822 11.6746 18.7746 9.61276 18.8072C8.25953 18.7931 8.53779 18.789 7.19756 18.7884C7.05628 18.7883 6.96926 18.8385 6.88223 18.8887C6.79528 18.9389 6.70832 18.9891 6.56721 18.9891C6.12635 18.9893 5.63149 18.9395 5.13658 18.8897C4.64162 18.84 5.22769 18.7902 4.78658 18.7903C3.68431 18.7907 4.74237 18.7897 3.63264 18.7835C2.8644 18.7919 2.95316 18.7895 2.43998 18.7867C2.26422 18.7857 2.08126 18.7847 1.87591 18.7841C1.6571 18.7835 1.31524 18.8198 1.09692 18.8051C0.644436 18.7748 -0.0405909 18.7288 0.0190555 19.1526C0.0207014 19.1643 0.0219673 19.1765 0.0220023 19.1883C0.022205 19.2567 0.0235677 19.3224 0.025737 19.3866C0.0257863 19.388 0.0246158 19.3892 0.0231544 19.3892C0.0219656 19.3892 0.0209491 19.39 0.0206728 19.3911C0.000884177 19.4739 -0.0183692 19.7168 0.0324034 19.8194C0.0335025 19.8212 0.0345704 19.823 0.0356075 19.8247C0.0455915 19.8414 0.0519466 19.86 0.0531638 19.8793C0.0540844 19.894 0.0518793 19.9087 0.0486431 19.923C0.0403819 19.9596 0.0324034 20.0274 0.0324034 20.1573V20.2799C0.0324034 20.3001 -0.000943943 20.3225 0.000296274 20.3426C0.00103431 20.359 0.0137065 20.3825 0.0284234 20.407C0.0310109 20.4113 0.0324034 20.4162 0.0324034 20.4212V20.4513C0.0324034 20.4594 0.023505 20.4644 0.0165652 20.4602C0.00953463 20.4559 0.000517026 20.46 0.000691068 20.4683C0.0125229 21.028 0.0184607 23.1098 0.0185059 23.3914C0.0185062 23.3935 0.0201746 23.3946 0.0222327 23.3946C0.0243717 23.3946 0.0260685 23.3964 0.0259589 23.3985C0.0060563 23.7866 0.223697 24.022 0.803328 23.9914C2.00142 23.9979 2.63763 23.9933 3.81073 23.9886C5.40482 23.9824 3.74895 23.9761 5.37402 23.9979C5.62053 23.9979 5.77501 23.9538 5.92989 23.9095C6.08063 23.8664 6.9091 23.9721 7.06579 23.9774C7.397 23.9884 7.82765 23.9858 8.21345 23.9836C8.2278 23.9835 8.24209 23.9834 8.2563 23.9833C8.76433 23.9804 9.22959 23.8841 9.73578 23.9274C10.0886 23.9576 10.4309 23.9868 10.7254 23.9979C12.3944 23.982 9.95518 23.988 11.8649 23.9941C14.205 24.0016 11.7173 24.0092 13.7791 23.9766C14.5243 23.9907 14.7865 23.9948 16.1268 23.9954C16.268 23.9955 16.3551 23.9453 16.4421 23.8951C16.529 23.8449 16.616 23.7947 16.7571 23.7947C17.198 23.7945 17.6928 23.8443 18.1878 23.894C18.6827 23.9438 18.7723 23.9936 19.2134 23.9935C20.3157 23.9931 19.8657 23.9941 20.9755 24.0003C21.7437 23.9919 21.3847 23.9943 21.8979 23.9971C22.0071 23.9977 22.0681 23.9983 22.1241 23.9988C22.3429 24.0009 22.6848 23.964 22.9031 23.9787C23.3556 24.009 24.0406 24.055 23.9809 23.6312C23.9793 23.6195 23.978 23.6073 23.978 23.5955C23.9778 23.5271 23.9764 23.4614 23.9743 23.3972Z"
        fill="white"
    />
</svg>