<svg height="100%" viewBox="0 0 160 29"
    fill="none" xmlns="http://www.w3.org/2000/svg">
    <path
        d="M107.425 9.97779L102.69 21.0499L100.391 21.9375L95.3613 9.76903L93.605 8.79424L94.0579 7.92383H99.8178V8.63724L98.0769 9.85615L102.099 19.6049L106.207 9.92517L103.3 8.79424L103.736 7.92383H109.166V8.63724L107.425 9.97779Z"
        fill="white"
    />
    <path
        d="M119.298 21.6058H108.626V20.8924L110.263 19.6045V9.3847L108.417 8.79293L108.853 7.92252H119.124L120.186 7.60938V11.7872L119.489 12.0486L117.382 8.91715H112.839V14.1224H115.294L116.582 11.9985H117.296V17.2037L116.425 17.6385L115.311 15.1144H112.839V20.5982H117.296L119.663 17.1339L120.36 17.3952V21.9215L119.298 21.6058Z"
        fill="white"
    />
    <path
        d="M143.972 17.6047C143.663 17.2708 143.308 16.981 142.919 16.7429C142.502 16.4824 141.921 16.1537 141.178 15.7595C140.308 15.2954 139.606 14.8925 139.072 14.55C138.556 14.224 138.095 13.8185 137.705 13.3492C137.328 12.8903 137.139 12.3831 137.139 11.8258C137.139 11.2452 137.392 10.6215 137.897 9.95386C138.407 9.28272 139.035 8.70992 139.751 8.26566C140.482 7.80759 141.155 7.57812 141.77 7.57812C142.513 7.57812 143.38 7.66525 144.373 7.83951C145.365 8.01376 146.088 8.19923 146.54 8.39591V11.9474H145.496C144.962 11.0071 144.373 10.2756 143.729 9.75372C143.086 9.23182 142.409 8.97044 141.701 8.9713C141.109 8.9713 140.645 9.15418 140.308 9.51994C139.971 9.8857 139.803 10.3584 139.803 10.939C139.803 11.322 139.948 11.6783 140.239 12.0095C140.554 12.3615 140.921 12.6643 141.327 12.9058C141.761 13.1732 142.351 13.4976 143.093 13.8806C143.941 14.3223 144.631 14.7105 145.165 15.0469C145.677 15.3644 146.132 15.7646 146.514 16.2305C146.879 16.6834 147.062 17.182 147.062 17.7272C147.062 18.3077 146.792 18.9314 146.252 19.5991C145.701 20.2763 145.032 20.8491 144.277 21.2882C143.5 21.7445 142.792 21.9731 142.153 21.9731C141.375 21.9731 140.449 21.886 139.376 21.7117C138.303 21.5375 137.528 21.352 137.052 21.1553V17.6055H138.114C138.671 18.5458 139.31 19.2773 140.029 19.7992C140.749 20.3211 141.485 20.5825 142.24 20.5817C142.89 20.5817 143.412 20.3876 143.806 19.9985C144.2 19.6094 144.397 19.1488 144.398 18.6148C144.399 18.2542 144.256 17.9178 143.972 17.6047Z"
        fill="white"
    />
    <path
        d="M158.935 21.6058H148.263V20.8924L149.9 19.6045V9.3847L148.055 8.79293L148.49 7.92252H158.764L159.825 7.60938V11.7872L159.129 12.0486L157.023 8.91715H152.479V14.1224H154.933L156.222 11.9985H156.936V17.2037L156.065 17.6385L154.951 15.1144H152.479V20.5982H156.936L159.304 17.1339L160 17.3952V21.9215L158.935 21.6058Z"
        fill="white"
    />
    <path
        d="M121.833 20.7324L123.766 19.8093L126.29 15.5789L127.543 15.1787C126.511 14.8422 125.629 14.3203 124.898 13.613C124.166 12.9056 123.8 12.1283 123.801 11.2804C123.796 10.6472 123.978 10.0261 124.324 9.49554C124.672 8.95639 125.165 8.52938 125.803 8.21624C126.442 7.9031 127.173 7.74609 127.997 7.74609C128.346 7.74609 128.891 7.76938 129.634 7.81597C130.632 7.88584 131.648 7.92035 132.68 7.92035H135.048L135.483 8.79076L133.638 9.34803V19.5661L135.274 20.8868V21.6002H129.634L129.198 20.7298L131.06 20.138V9.57232C130.582 9.2195 130.001 9.03144 129.407 9.03402C128.491 9.03402 127.791 9.3187 127.309 9.88718C126.826 10.4557 126.586 11.1812 126.587 12.0628C126.587 12.7589 126.795 13.3041 127.213 13.6992C127.63 14.0934 128.199 14.291 128.918 14.291H129.841L130.155 14.9354L129.373 15.4918L125.735 21.6028H122.27L121.833 20.7324Z"
        fill="white"
    />
    <path
        d="M59.5804 21.583V20.4012L61.1961 19.14V9.96399C60.7596 9.72245 60.2705 9.73712 59.7909 9.62411L58.7083 10.4384C58.7083 12.1724 58.7083 13.927 58.7083 15.6816C58.7083 16.1863 58.7221 16.6918 58.6427 17.1938C58.4055 18.7069 57.5989 19.868 56.3929 20.76C54.1259 22.4379 50.7547 22.4301 48.4851 20.7479C47.1661 19.7706 46.4492 18.4533 46.4285 16.8048C46.4026 14.7344 46.4207 12.6649 46.4147 10.5954C46.4147 10.3332 46.4587 10.0675 46.3535 9.77507L44.397 9.27905L45.0767 7.92988H52.6344C52.7422 8.32583 52.6948 8.72178 52.6594 9.15224L51.054 10.4083C50.966 11.0578 51.0186 11.7324 51.0161 12.4027C51.01 13.7985 51.0014 15.1942 51.0359 16.59C51.0575 17.4992 51.3154 18.3429 51.9641 19.0261C52.7672 19.8741 53.7601 19.7826 54.7125 19.4755C55.978 19.0666 56.7328 18.0893 56.7828 16.7875C56.8717 14.5541 56.807 12.3164 56.807 10.039L54.6271 9.28595C54.8704 8.80891 55.0938 8.37241 55.2956 7.97473C55.5337 7.86 55.7296 7.89882 55.9185 7.89709C59.5994 7.87294 63.282 7.97214 66.9629 7.74268C68.3734 7.65469 69.7372 7.85051 71.0407 8.4535C74.7112 10.1503 75.9129 15.1934 73.3077 18.2385C71.2166 20.6815 68.6304 22.0333 65.3368 21.7926C63.728 21.6753 62.1175 21.6278 60.5052 21.652C60.2196 21.6554 59.9298 21.6951 59.5804 21.583ZM65.6707 9.82683V19.7171C67.4357 20.3727 68.344 19.9733 69.0031 18.2963C69.2714 17.6001 69.4266 16.866 69.462 16.1207C69.5629 14.3298 69.4775 12.5545 68.6787 10.9043C68.0343 9.57322 67.0915 9.25317 65.6707 9.82683Z"
        fill="white"
    />
    <path
        d="M28.9791 21.6039C28.9032 21.1821 28.9213 20.8258 28.9584 20.4419C29.4458 20.1038 30.0634 20.0158 30.6017 19.6811V10.9226C29.5864 10.6043 28.5038 10.5163 27.4194 10.2256C27.5713 9.41385 27.8637 8.68837 28.0716 7.96202C28.1579 7.93269 28.2027 7.90422 28.2484 7.90422C31.737 7.90077 35.2238 7.89387 38.7106 7.74636C39.8122 7.69978 40.8457 8.0457 41.7764 8.65818C43.4508 9.75978 43.9831 12.0932 42.1759 13.7029C41.635 14.1851 40.9811 14.4603 40.2677 14.8589C41.2356 15.241 42.1629 15.3566 43.0799 15.6516L45.1235 19.4852L46.7453 20.2401C46.6314 20.762 46.3588 21.1778 46.0957 21.6246H39.9934L36.8818 15.7371L36.1684 15.2876C36.2702 14.9218 36.4617 14.6199 36.6825 14.2214C37.7651 14.3654 38.7606 14.1351 39.0203 12.8515C39.2377 11.7792 39.1687 10.7164 38.2042 9.96077C37.4856 9.39833 36.3702 9.42075 35.4817 9.97975C35.474 10.1342 35.4576 10.3007 35.4576 10.4671C35.4576 13.5209 35.4576 16.5747 35.4576 19.6647C36.0873 19.9459 36.7688 19.9916 37.4313 20.2478C37.3554 20.7516 37.0215 21.1346 36.8223 21.603L28.9791 21.6039Z"
        fill="white"
    />
    <path
        d="M89.7023 21.6103H74.3662C74.2782 21.2178 74.3257 20.8607 74.3257 20.4803C74.8036 19.9523 75.4566 19.6142 75.9707 19.1078V9.84988L73.978 9.28571C74.2144 8.81557 74.4292 8.38942 74.6681 7.91583H86.734L88.4291 6.39844C88.8682 8.31696 89.2857 10.1458 89.7101 12.0013C88.8276 12.3541 87.94 12.5448 87.0109 12.832L84.7784 9.60489H81.4244V13.7672H82.5493C83.0393 13.2694 83.3791 12.594 83.8916 12.0212C84.2789 11.9685 84.6766 11.9453 85.107 12.0427V16.9555C84.6662 17.2281 84.1987 17.4558 83.7121 17.6353L82.5294 15.4985C82.1283 15.4303 81.7781 15.4485 81.3976 15.4924V19.961H84.605L87.1817 16.3758L88.4282 16.896C88.8466 18.4375 89.2641 19.9868 89.7023 21.6103Z"
        fill="white"
    />
    <path
        d="M16.6929 14.5235L10.9106 25.147L6.11084 10.6235L11.8932 0L16.6929 14.5235Z"
        fill="white"
    />
    <path
        d="M4.87309 23.2828L1.10246 28.0119L0 20.4439L3.77063 15.7148L4.87309 23.2828Z"
        fill="white"
    />
    <path
        d="M21.1667 6.47466L20.7164 9.4646L18.3467 6.46345L18.797 3.47266L21.1667 6.47466Z"
        fill="white"
    />
</svg>