<svg width="24" height="24" viewBox="0 0 24 24" fill="none" xmlns="http://www.w3.org/2000/svg">
<rect width="24" height="24" rx="4" fill="#14181F"/>
<path d="M6.59924 15.1606C6.69715 15.0669 6.82988 15.0144 6.96828 15.0144H19.7375C19.9701 15.0144 20.0865 15.2836 19.922 15.4409L17.3988 17.8538C17.3009 17.9474 17.1682 18 17.0298 18H4.26058C4.02799 18 3.91153 17.7308 4.07606 17.5734L6.59924 15.1606Z" fill="url(#paint0_linear_802_3574)"/>
<path d="M6.59924 6.14622C6.69714 6.05259 6.82988 6 6.96828 6H19.7375C19.9701 6 20.0865 6.26921 19.922 6.42658L17.3988 8.83945C17.3009 8.93306 17.1682 8.98564 17.0298 8.98564H4.26058C4.02799 8.98564 3.91153 8.71644 4.07606 8.55909L6.59924 6.14622Z" fill="url(#paint1_linear_802_3574)"/>
<path d="M17.3988 10.6247C17.3009 10.5311 17.1682 10.4785 17.0298 10.4785H4.26058C4.02799 10.4785 3.91153 10.7477 4.07606 10.905L6.59924 13.3179C6.69714 13.4115 6.82988 13.4641 6.96828 13.4641H19.7375C19.9701 13.4641 20.0865 13.1949 19.922 13.0375L17.3988 10.6247Z" fill="url(#paint2_linear_802_3574)"/>
<defs>
<linearGradient id="paint0_linear_802_3574" x1="14.816" y1="2.70835" x2="6.57302" y2="19.2055" gradientUnits="userSpaceOnUse">
<stop stop-color="#00FFA3"/>
<stop offset="1" stop-color="#DC1FFF"/>
</linearGradient>
<linearGradient id="paint1_linear_802_3574" x1="14.816" y1="2.70835" x2="6.57302" y2="19.2055" gradientUnits="userSpaceOnUse">
<stop stop-color="#00FFA3"/>
<stop offset="1" stop-color="#DC1FFF"/>
</linearGradient>
<linearGradient id="paint2_linear_802_3574" x1="14.816" y1="2.70835" x2="6.57302" y2="19.2055" gradientUnits="userSpaceOnUse">
<stop stop-color="#00FFA3"/>
<stop offset="1" stop-color="#DC1FFF"/>
</linearGradient>
</defs>
</svg>
