<svg
    width="184"
    height="32"
    viewBox="0 0 184 32"
    fill="none"
    xmlns="http://www.w3.org/2000/svg"
>
    <path
        d="M53.8059 12.1592L51.6163 13.0977L47.0806 6.62259H44.7346V24.8904L48.3318 25.735L47.0806 28.2374H35.0689V26.0165L38.0092 23.7018V6.62259H35.7571L31.2214 13.0977L29.0317 12.1592V3.08789L31.628 3.65094H51.2096L55.7942 3.68222L53.8059 12.1592Z"
        fill="white"
    />
    <path
        d="M81.1314 28.2374H69.1197V26.0165L72.0601 23.4515V17.4769H62.5195V24.7966L66.1168 25.735L64.8655 28.2374H52.8538V26.0165L55.7942 23.4515V7.12308L52.2282 6.18466L53.4794 3.68222H65.4911V5.90314L62.5195 8.49942V14.5366H72.0601V7.12308L68.4941 6.18466L69.7453 3.68222H81.757V5.90314L78.7854 8.49942V24.7966L82.3826 25.735L81.1314 28.2374Z"
        fill="white"
    />
    <path
        d="M101.492 28.2374H81.1285V26.0165L84.0688 23.7018V7.12308L80.5029 6.15338L81.7541 3.65094H101.179L103.776 3.08789V11.5336L101.586 12.472L97.6446 6.62259H90.7942V14.1925H93.8284L96.1118 10.9706H98.3328V19.8543L95.8303 21.1055L93.7345 17.1641H90.7942V25.2658H97.3631L101.899 18.7907L104.088 19.7291V28.8005L101.492 28.2374Z"
        fill="white"
    />
    <path
        d="M136.261 28.2374H126.126V26.9549L129.066 24.5776V16.8826H117.43V25.6099L120.777 26.6734L119.995 28.2374H109.86V26.9549L112.8 24.5776V6.24722L109.485 5.21497L110.267 3.65094H120.402V4.93344L117.43 7.31076V15.0996H129.066V6.24722L125.751 5.21497L126.533 3.65094H136.668V4.93344L133.696 7.31076V25.6099L137.043 26.6734L136.261 28.2374Z"
        fill="white"
    />
    <path
        d="M159.59 7.2482V18.5405C159.59 20.7301 159.058 22.6069 157.994 24.171C156.931 25.735 155.607 26.9132 154.022 27.7057C152.458 28.4772 150.925 28.863 149.424 28.863C147.505 28.863 145.785 28.4564 144.262 27.6431C142.761 26.809 141.583 25.6724 140.728 24.2335C139.873 22.7738 139.445 21.1368 139.445 19.3225V6.21594L136.129 5.21497L136.911 3.65094H147.046V4.93344L144.075 7.2482V17.9774C144.075 20.459 144.69 22.388 145.92 23.7643C147.171 25.1407 149.048 25.8288 151.551 25.8288C152.489 25.8288 153.417 25.5369 154.335 24.953C155.252 24.3482 156.003 23.4724 156.587 22.3254C157.192 21.1785 157.494 19.8334 157.494 18.2902V6.74771L154.084 5.21497L154.866 3.65094H162.561V4.93344L159.59 7.2482Z"
        fill="white"
    />
    <path
        d="M178.497 14.9432C180.04 15.4437 181.26 16.2466 182.157 17.3518C183.053 18.4362 183.502 19.677 183.502 21.0742C183.502 22.388 182.96 23.6288 181.875 24.7966C180.791 25.9435 179.435 26.8611 177.809 27.5493C176.182 28.2374 174.639 28.5815 173.179 28.5815C172.137 28.5815 171.115 28.5294 170.114 28.4251C168.445 28.3208 167.153 28.2687 166.235 28.2687H161.95V26.9862L164.89 24.6715V6.21594L161.574 5.21497L162.356 3.65094H166.204C168.101 3.65094 169.968 3.58838 171.803 3.46326C173.221 3.37984 174.264 3.33813 174.931 3.33813C176.391 3.33813 177.673 3.60923 178.778 4.15143C179.884 4.69362 180.739 5.43393 181.343 6.37234C181.948 7.28991 182.251 8.32217 182.251 9.46912C182.251 10.5118 181.906 11.5128 181.218 12.472C180.53 13.4105 179.623 14.2342 178.497 14.9432ZM177.34 11.0019C177.34 9.41698 176.933 8.13448 176.12 7.15436C175.306 6.15338 174.097 5.65289 172.491 5.65289C171.407 5.65289 170.416 5.92399 169.519 6.46619V14.693H173.586C174.775 14.693 175.692 14.3802 176.339 13.7545C177.006 13.1081 177.34 12.1905 177.34 11.0019ZM174.055 25.8601C175.452 25.8601 176.558 25.516 177.371 24.8279C178.184 24.1188 178.591 23.1596 178.591 21.95C178.591 20.4069 178.142 19.1661 177.246 18.2277C176.37 17.2684 175.066 16.7575 173.336 16.6949C173.19 16.7158 172.981 16.7262 172.71 16.7262H169.519V25.1407C170.791 25.662 172.303 25.9227 174.055 25.9227V25.8601Z"
        fill="white"
    />
    <path
        d="M10.5244 12.0352L17.8351 21.519L10.5244 31.0029L3.21375 21.519L10.5244 12.0352Z"
        fill="white"
    />
    <path
        d="M17.9014 8.58008L20.679 12.1834L17.9014 15.7868L15.1237 12.1834L17.9014 8.58008Z"
        fill="white"
    />
    <path
        d="M14.2988 0.00195312L16.5036 2.86209L14.2988 5.72223L12.0941 2.86209L14.2988 0.00195312Z"
        fill="white"
    />
    <path
        d="M4.34668 5.71875L7.69747 10.0656L4.34668 14.4125L0.995887 10.0656L4.34668 5.71875Z"
        fill="white"
    />
</svg>