<svg width="24" height="24" viewBox="0 0 24 24" fill="none" xmlns="http://www.w3.org/2000/svg">
<path d="M11.8224 10.8868C11.8693 10.9337 11.9337 10.961 12.0001 10.961C12.0666 10.961 12.131 10.9337 12.1779 10.8868L15.1416 7.87705C15.1875 7.83017 15.2139 7.76767 15.2139 7.70127V2.25C15.2139 2.11133 15.1026 2 14.9639 2H9.03613C8.89746 2 8.78613 2.11133 8.78613 2.25V7.70127C8.78613 7.7667 8.81152 7.83017 8.8584 7.87705L11.8224 10.8868Z" fill="#0F0F0F"/>
<path d="M10.961 12.0002C10.961 11.9338 10.9337 11.8693 10.8868 11.8224L7.87705 8.85767C7.83017 8.81177 7.76767 8.7854 7.70127 8.7854L2.25 8.78638C2.11133 8.78638 2 8.8977 2 9.03638V14.9641C2 15.1028 2.11133 15.2141 2.25 15.2141H7.70127C7.7667 15.2141 7.83017 15.1888 7.87705 15.1419L10.8868 12.1781C10.9337 12.1312 10.961 12.0666 10.961 12.0002Z" fill="#0F0F0F"/>
<path d="M12.1776 13.1133C12.0839 13.0176 11.9159 13.0176 11.8212 13.1133L8.85742 16.123C8.81152 16.1699 8.78516 16.2324 8.78516 16.2988L8.78613 21.7501C8.78613 21.8888 8.89746 22.0001 9.03613 22.0001H14.9639C15.1026 22.0001 15.2139 21.8888 15.2139 21.7501V16.2988C15.2139 16.2334 15.1885 16.1699 15.1416 16.123L12.1776 13.1133Z" fill="#0F0F0F"/>
<path d="M21.7501 8.78638H16.2988C16.2334 8.78638 16.1699 8.81177 16.123 8.85865L13.1133 11.8224C13.0664 11.8693 13.0391 11.9337 13.0391 12.0001C13.0391 12.0666 13.0664 12.131 13.1133 12.1779L16.123 15.1416C16.1699 15.1875 16.2324 15.2139 16.2988 15.2139H21.7501C21.8888 15.2139 22.0001 15.1026 22.0001 14.9639V9.03613C22.0001 8.89746 21.8888 8.78638 21.7501 8.78638Z" fill="#0F0F0F"/>
</svg>
